{"glyphs":{"0":{"ha":686,"x_min":0,"x_max":0,"o":"m 308 -21 b 686 478 568 -18 686 226 b 308 1040 686 750 550 1032 b -69 478 67 1032 -69 750 b 308 -21 -69 226 49 -18 z m 308 168 b 129 478 229 168 150 271 l 129 483 b 308 833 129 717 218 833 b 488 483 399 833 488 717 l 488 478 b 308 168 468 271 388 168 z "},"1":{"ha":401,"x_min":0,"x_max":0,"o":"m 401 0 b 282 72 353 8 311 29 l 282 1018 l -69 1018 b 50 944 -21 1010 21 989 l 50 72 b -69 0 21 29 -21 8 z "},"2":{"ha":724,"x_min":0,"x_max":0,"o":"m 639 0 l 724 275 b 336 221 697 229 493 221 l 264 221 b 604 801 276 296 604 579 b 519 964 604 863 581 918 b 261 1029 454 1013 357 1029 b -32 976 128 1029 -1 997 l -69 813 b 186 876 44 857 128 876 b 299 781 267 876 299 839 b -64 224 299 614 28 279 l -64 0 z "},"3":{"ha":672,"x_min":0,"x_max":0,"o":"m 261 -21 b 519 44 357 -21 454 -4 b 672 325 626 125 672 228 b 542 574 672 425 624 518 b 629 797 594 644 629 724 b 540 964 629 861 603 919 b 278 1028 474 1013 374 1028 b -11 976 146 1028 18 997 l -49 813 b 182 864 46 849 122 864 b 339 768 288 864 339 818 b 88 631 339 704 254 631 l 88 493 b 383 321 293 493 383 407 b 142 153 383 236 296 153 b -69 196 81 153 10 165 l -32 32 b 261 -21 -1 11 128 -21 z "},"4":{"ha":835,"x_min":0,"x_max":0,"o":"m 761 0 b 642 72 713 8 671 29 l 642 215 l 756 215 l 835 449 l 642 449 l 642 1018 l 354 1018 l -69 215 l 410 215 l 410 72 b 290 0 381 29 339 8 z m 410 449 l 171 449 b 410 900 329 750 250 600 z "},"5":{"ha":669,"x_min":0,"x_max":0,"o":"m 263 -22 b 646 210 428 -22 576 33 b 669 338 663 251 669 294 b 621 514 669 400 653 461 b 317 672 564 607 460 672 b 208 661 283 672 247 669 l 208 797 b 339 800 235 797 283 800 b 596 743 443 800 568 792 l 511 1018 l -24 1018 l -24 493 b 140 525 38 515 92 525 b 379 308 300 525 379 414 b 178 118 379 211 313 118 b -69 196 111 118 29 140 l -33 32 b 136 -12 -12 18 54 -3 b 263 -22 179 -18 221 -22 z "},"6":{"ha":744,"x_min":0,"x_max":0,"o":"m 356 -44 b 744 358 553 -44 744 85 l 742 410 b 296 701 722 657 474 701 l 279 701 b 635 922 317 782 425 903 l 668 1047 b 622 1051 658 1050 643 1051 b 493 1036 589 1051 543 1047 b 10 692 286 993 94 871 b -69 376 -46 574 -69 468 b 356 -44 -69 103 146 -44 z m 432 197 b 224 406 306 201 224 304 b 267 522 224 447 238 488 b 465 307 399 504 465 403 b 432 197 465 268 454 229 z "},"7":{"ha":621,"x_min":0,"x_max":0,"o":"m 425 0 b 328 72 378 8 343 29 l 621 1018 l 15 1018 l -69 743 b 322 804 -40 793 156 803 l 96 72 b -46 0 53 29 6 8 z "},"8":{"ha":767,"x_min":0,"x_max":0,"o":"m 368 -31 b 756 297 565 -31 756 76 l 753 339 b 647 503 746 415 704 467 b 767 683 729 542 767 608 b 358 1039 767 840 604 1026 l 331 1040 b -58 710 133 1040 -58 933 b -57 671 -58 697 -58 685 b 50 506 -49 594 -8 542 b -69 325 -33 467 -69 400 b 340 -29 -69 168 93 -18 z m 418 579 b 221 754 286 594 221 675 b 254 844 221 786 232 818 b 461 674 379 840 461 757 b 418 579 461 640 447 607 z m 443 165 b 235 335 317 168 235 251 b 278 429 235 368 249 401 b 476 254 410 415 476 333 b 443 165 476 222 465 192 z "},"9":{"ha":744,"x_min":0,"x_max":0,"o":"m 53 -44 b 182 -29 86 -44 132 -39 b 664 317 389 15 579 138 b 744 632 719 436 744 542 b 319 1051 744 906 529 1051 b -69 647 122 1051 -69 922 b -68 597 -69 631 -69 614 b 379 306 -47 351 203 306 l 396 306 b 40 86 357 226 249 104 l 7 -39 b 53 -44 17 -42 32 -44 z m 407 485 b 210 700 275 503 210 603 b 243 811 210 739 221 779 b 450 601 368 807 450 704 b 407 485 450 560 436 519 z "},"\u0000":{"ha":694,"x_min":0,"x_max":0,"o":""},"\u001d":{"ha":694,"x_min":0,"x_max":0,"o":""}," ":{"ha":706,"x_min":0,"x_max":0,"o":""}," ":{"ha":706,"x_min":0,"x_max":0,"o":""},"!":{"ha":165,"x_min":0,"x_max":0,"o":"m 163 1028 l -69 1028 b -69 354 -69 689 -69 693 l 163 354 b 163 1028 163 693 163 689 z m -68 135 b -68 92 -68 101 -68 92 b -68 0 -68 71 -68 42 l 165 0 b 165 92 165 42 165 71 b 165 135 165 124 165 135 b 165 225 165 156 165 185 l -68 225 b -68 135 -68 185 -68 156 z "},"\"":{"ha":431,"x_min":0,"x_max":0,"o":"m 197 885 b 339 869 235 863 300 851 b 268 779 339 869 313 814 b 197 733 238 754 211 740 l 197 732 l 322 732 b 431 865 347 749 396 788 l 431 1028 l 197 1028 l 197 885 z m -69 885 b 72 869 -32 863 32 851 b 1 779 72 869 46 814 b -69 733 -29 754 -56 740 l -69 732 l 56 732 b 164 865 81 749 129 788 l 164 1028 l -69 1028 l -69 885 z "},"#":{"ha":1038,"x_min":0,"x_max":0,"o":"m 1038 1018 l 576 1018 l 574 1018 l 569 1018 l 567 1018 l 106 1018 b 213 944 154 1010 192 989 l 190 818 l 47 818 b -25 936 4 847 -17 888 l -25 553 l -25 547 l -25 544 l -25 539 l -25 538 l -25 532 l -25 531 l -25 525 l -25 522 l -25 517 l -25 515 l -25 510 l -25 508 l -25 503 l -25 500 l -25 496 l -25 493 l -25 488 l -25 486 l -25 481 l -25 479 l -25 474 l -25 471 l -25 465 l -25 82 b 47 200 -17 131 4 171 l 85 200 l 63 72 b -69 0 26 29 -19 8 l 392 0 l 394 0 l 399 0 l 401 0 l 863 0 b 756 72 814 8 776 29 l 778 200 l 921 200 b 993 82 964 171 985 131 l 993 465 l 993 471 l 993 474 l 993 479 l 993 481 l 993 486 l 993 488 l 993 493 l 993 496 l 993 500 l 993 503 l 993 508 l 993 510 l 993 515 l 993 517 l 993 522 l 993 525 l 993 531 l 993 532 l 993 538 l 993 539 l 993 544 l 993 547 l 993 553 l 993 936 b 921 818 985 888 964 847 l 883 818 l 906 944 b 1038 1018 942 989 988 1010 z m 125 433 l 47 433 b -14 508 18 453 -1 479 b 47 585 -1 539 18 565 l 150 585 l 125 433 z m 522 72 b 397 1 488 31 444 10 b 296 72 351 10 317 31 l 317 200 l 544 200 l 522 72 z m 585 433 l 357 433 l 383 585 l 611 585 l 585 433 z m 651 818 l 424 818 l 446 944 b 571 1017 481 988 524 1008 b 672 944 617 1008 651 988 l 651 818 z m 921 585 b 982 508 950 565 969 539 b 921 433 969 479 950 453 l 817 433 l 843 585 l 921 585 z "},"$":{"ha":664,"x_min":0,"x_max":0,"o":"m 414 -108 l 414 36 b 664 335 564 79 664 185 l 664 340 b 376 657 660 508 517 592 b 218 786 290 699 218 729 b 225 818 218 796 221 807 b 369 885 246 868 304 885 b 600 821 471 885 588 843 l 556 988 b 414 1021 507 1000 461 1013 l 414 1169 l 181 1169 l 181 1013 b -54 761 47 978 -50 892 l -54 746 b 185 450 -54 606 19 532 b 392 272 261 413 392 371 b 346 190 392 236 374 208 b 260 168 319 174 290 168 b 110 199 208 168 154 185 b -69 264 22 225 -65 260 l -21 74 b 181 21 49 49 111 29 l 181 -108 z "},"%":{"ha":1106,"x_min":0,"x_max":0,"o":"m 854 0 b 1106 251 993 0 1106 113 b 854 503 1106 390 993 503 b 601 251 715 503 601 390 b 854 0 601 113 715 0 z m 854 69 b 754 251 799 69 754 151 b 854 435 754 353 799 435 b 954 251 908 435 954 353 b 854 69 954 151 908 69 z m 322 0 l 922 1018 l 689 1018 l 89 0 z m 182 515 b 433 767 321 515 433 628 b 182 1018 433 906 321 1018 b -69 767 43 1018 -69 906 b 182 515 -69 628 43 515 z m 182 583 b 82 767 126 583 82 665 b 182 949 82 867 126 949 b 282 767 238 949 282 867 b 182 583 282 665 238 583 z "},"&":{"ha":1207,"x_min":0,"x_max":0,"o":"m 308 -31 b 635 125 528 -29 569 32 b 986 -1 796 13 828 -1 l 1207 0 b 469 560 974 67 644 386 b 581 743 547 599 581 669 b 326 1018 581 875 476 1018 b 75 767 188 1018 75 906 b 168 571 75 688 111 617 b -69 282 29 525 -69 413 b 306 -31 -69 111 88 -31 z m 363 651 b 233 796 269 688 233 744 b 326 893 233 849 274 893 b 429 775 388 893 429 838 b 363 651 429 732 410 685 z m 388 124 b 204 308 301 124 204 201 b 265 454 204 353 222 403 b 499 197 300 417 499 224 l 499 196 b 388 124 475 146 433 124 z "},"'":{"ha":163,"x_min":0,"x_max":0,"o":"m 56 732 b 163 865 79 749 128 788 l 163 1028 l -69 1028 l -69 885 b 24 861 -44 871 -10 861 b 72 869 42 861 58 863 b 1 779 72 869 46 814 b -69 733 -29 754 -57 740 l -69 732 z "},"(":{"ha":253,"x_min":0,"x_max":0,"o":"m 253 -189 b 133 -115 204 -181 163 -160 b 51 407 78 57 51 232 b 133 956 51 589 79 771 b 253 1028 163 1000 204 1021 l 124 1028 b 4 956 75 1021 33 1000 b -69 376 -42 757 -69 564 b 4 -115 -69 207 -47 43 b 124 -189 33 -160 75 -181 z "},")":{"ha":253,"x_min":0,"x_max":0,"o":"m 60 -189 b 179 -115 108 -181 150 -160 b 253 378 231 43 253 208 b 179 956 253 565 225 758 b 60 1028 150 1000 108 1021 l -69 1028 b 50 956 -21 1021 21 1000 b 131 407 103 771 131 589 b 50 -115 131 232 104 57 b -69 -189 21 -160 -21 -181 z "},"*":{"ha":486,"x_min":0,"x_max":0,"o":"m 247 582 l 443 710 l 332 792 l 486 781 l 424 1004 l 267 896 l 325 1068 l 92 1068 l 157 893 l -6 1004 l -69 781 l 85 792 l -25 710 l 169 582 l 208 736 z "},"+":{"ha":547,"x_min":0,"x_max":0,"o":"m 311 0 l 311 300 l 547 300 l 547 443 l 311 443 l 311 717 l 168 717 l 168 443 l -69 443 l -69 300 l 168 300 l 168 0 z "},",":{"ha":163,"x_min":0,"x_max":0,"o":"m 131 -54 b 163 4 142 -37 153 -18 l 163 167 l -69 167 l -69 24 b 24 0 -44 10 -10 0 b 72 8 42 0 58 1 b 31 -54 72 8 57 -24 z "},"-":{"ha":518,"x_min":0,"x_max":0,"o":"m 519 308 l 519 436 l 50 436 l 50 308 z "},"­":{"ha":518,"x_min":0,"x_max":0,"o":"m 519 308 l 519 436 l 50 436 l 50 308 z "},".":{"ha":164,"x_min":0,"x_max":0,"o":"m 164 0 l 164 225 l -69 225 l -69 0 z "},"/":{"ha":599,"x_min":0,"x_max":0,"o":"m 164 -203 b 599 1018 276 136 485 679 l 365 1018 b -69 -203 251 679 44 136 z "},":":{"ha":164,"x_min":0,"x_max":0,"o":"m 164 556 l 164 781 l -69 781 l -69 556 z m 164 228 l 164 453 l -69 453 l -69 228 z "},";":{"ha":164,"x_min":0,"x_max":0,"o":"m 164 556 l 164 781 l -69 781 l -69 556 z m 131 183 b 164 240 142 200 153 218 l 164 404 l -69 404 l -69 260 b 25 236 -44 246 -8 236 b 72 244 43 236 58 239 b 32 183 72 244 57 214 z "},"<":{"ha":868,"x_min":0,"x_max":0,"o":"m 868 -61 l 868 183 b 372 406 701 258 526 335 l 868 628 l 868 872 b -69 449 564 733 179 568 l -69 363 b 868 -61 179 243 564 76 z "},"=":{"ha":729,"x_min":0,"x_max":0,"o":"m 729 146 l 729 274 l -69 274 l -69 146 z m 729 436 l 729 564 l -69 564 l -69 436 z "},">":{"ha":771,"x_min":0,"x_max":0,"o":"m -69 -61 b 771 363 204 76 547 243 l 771 449 b -69 872 547 568 204 733 l -69 628 l 376 406 b -69 183 238 335 82 258 z "},"?":{"ha":592,"x_min":0,"x_max":0,"o":"m 340 -12 l 340 213 l 54 213 l 54 -12 z m 340 257 l 342 372 b 592 821 443 490 592 672 b 521 967 592 876 571 926 b 267 1033 458 1017 363 1033 b -32 979 132 1033 -1 1000 l -69 824 b 196 883 49 865 135 883 b 321 788 286 883 321 844 b 54 372 321 676 186 490 l 54 257 z "},"@":{"ha":1003,"x_min":0,"x_max":0,"o":"m 525 -6 b 928 72 708 -6 881 15 b 996 314 965 103 986 196 b 474 99 911 193 685 99 b 39 501 247 99 39 206 b 61 685 39 557 46 617 b 482 982 68 853 276 982 b 883 518 683 982 883 857 l 883 510 b 668 279 840 361 724 279 b 624 326 633 279 624 301 b 633 379 624 347 631 369 l 793 831 l 692 831 l 669 767 b 510 861 667 774 628 861 b 150 422 315 861 150 646 b 350 210 150 300 239 211 l 353 210 b 518 278 436 210 513 271 b 651 204 524 275 565 204 b 1003 485 797 204 947 357 b 928 994 1001 715 969 960 b 490 1081 876 1056 575 1081 b 6 994 393 1081 69 1071 b -69 463 -33 963 -69 701 b 6 72 -69 283 -49 118 b 525 -6 42 29 292 -6 z m 375 304 b 267 439 292 304 267 374 b 518 768 267 617 399 768 b 607 675 603 768 607 699 b 375 304 607 596 513 304 z "},"A":{"ha":1093,"x_min":0,"x_max":0,"o":"m 1093 -1 b 631 854 933 78 743 672 b 390 1025 542 997 450 1025 b 325 1014 354 1025 331 1015 b 332 971 331 1004 332 989 b -69 0 332 753 7 8 l 225 0 b 208 46 213 0 208 19 b 243 254 208 111 233 224 l 628 254 b 651 119 638 211 651 164 b 585 0 651 71 636 28 z m 592 389 l 293 389 b 449 783 346 531 410 690 b 592 389 497 654 549 521 z "},"B":{"ha":883,"x_min":0,"x_max":0,"o":"m 600 -1 b 883 289 756 -1 883 129 b 600 579 883 449 756 579 b 813 797 724 579 813 669 b 590 1014 813 917 721 1014 l -69 1014 b 49 942 -21 1006 19 985 l 49 -1 z m 488 228 l 236 228 l 239 896 l 457 896 b 594 772 558 875 594 824 b 538 654 594 729 571 685 b 408 579 500 619 449 607 b 351 489 381 561 358 535 b 471 513 397 506 436 513 b 639 365 583 513 639 438 b 488 228 639 296 588 228 z "},"C":{"ha":764,"x_min":0,"x_max":0,"o":"m 439 -4 b 718 49 572 -4 688 28 l 764 215 b 526 161 681 178 600 161 b 469 164 507 161 488 161 b 151 504 258 192 151 349 b 469 844 151 661 258 818 b 528 849 489 847 508 849 b 764 793 601 849 682 832 l 718 960 b 439 1014 688 982 572 1014 b 104 919 326 1014 201 992 b -69 504 -12 835 -69 669 b 96 96 -69 343 -15 182 b 439 -4 194 19 322 -4 z "},"D":{"ha":886,"x_min":0,"x_max":0,"o":"m 375 -4 b 718 96 490 -4 619 19 b 886 513 829 182 886 349 b 708 919 886 678 828 842 b 365 1013 600 990 475 1013 b 310 1011 346 1013 328 1013 l -69 1011 b 50 939 -21 1004 21 982 l 50 71 b -69 -1 21 28 -21 6 l 304 -1 b 375 -4 326 -3 350 -4 z m 282 161 l 282 853 l 293 853 b 661 489 525 853 661 668 b 344 164 661 339 564 192 b 282 161 324 163 303 161 z "},"E":{"ha":836,"x_min":0,"x_max":0,"o":"m 753 -1 l 836 272 b 488 218 810 226 636 218 b 282 221 397 218 317 221 l 282 526 l 542 526 b 629 453 589 514 624 492 l 629 749 b 547 675 622 710 592 686 l 282 675 l 282 894 b 533 901 325 894 429 901 b 797 849 654 901 774 892 l 753 1015 l -69 1015 b 49 944 -21 1008 19 988 l 49 68 b -69 -1 19 26 -21 6 z "},"F":{"ha":799,"x_min":0,"x_max":0,"o":"m 401 -1 b 282 71 353 6 311 28 l 282 526 l 543 526 b 631 453 590 514 624 492 l 631 749 b 549 675 624 710 592 686 l 282 675 l 282 894 b 535 901 325 894 429 901 b 799 849 656 901 775 892 l 753 1015 l -69 1015 b 50 943 -21 1008 21 986 l 50 71 b -69 -1 21 28 -21 6 z "},"G":{"ha":847,"x_min":0,"x_max":0,"o":"m 654 -3 l 847 -1 b 774 121 804 28 782 74 b 778 515 774 253 778 383 l 475 515 b 544 444 551 515 542 450 l 546 222 b 490 219 526 221 508 219 b 147 518 263 219 147 365 b 481 850 147 668 258 822 b 539 854 500 853 519 854 b 772 800 613 854 693 838 l 735 964 b 458 1017 706 985 590 1017 b -69 499 225 1017 -68 919 b 107 110 -69 319 19 171 b 654 -3 251 10 460 -3 z "},"H":{"ha":997,"x_min":0,"x_max":0,"o":"m 997 -1 b 879 71 949 6 908 28 l 879 943 b 997 1015 908 986 949 1008 l 526 1015 b 646 943 576 1008 617 986 l 646 675 l 283 675 l 283 943 b 401 1015 313 986 353 1008 l -69 1015 b 50 943 -21 1008 21 986 l 50 71 b -69 -1 21 28 -21 6 l 401 -1 b 283 71 353 6 313 28 l 283 526 l 646 526 l 646 71 b 526 -1 617 28 576 6 z "},"I":{"ha":401,"x_min":0,"x_max":0,"o":"m 401 -1 b 282 71 353 6 311 28 l 282 943 b 401 1015 311 986 353 1008 l -69 1015 b 50 943 -21 1008 21 986 l 50 71 b -69 -1 21 28 -21 6 z "},"J":{"ha":797,"x_min":0,"x_max":0,"o":"m 474 -1 b 632 1 560 -1 632 0 b 797 193 725 15 797 96 l 797 1015 l 444 1015 b 564 943 494 1008 535 986 l 564 307 l 565 296 b 475 218 565 272 556 221 l 322 218 b 233 361 236 228 233 297 l 233 524 l -69 524 b 0 451 7 524 -3 457 l 0 193 b 199 0 0 85 90 0 z "},"K":{"ha":968,"x_min":0,"x_max":0,"o":"m 968 -1 b 611 649 775 150 710 433 b 844 1015 611 661 740 968 l 439 1014 b 504 926 439 1014 497 982 b 507 881 506 913 507 897 b 400 674 507 799 479 696 l 282 674 l 282 1015 l -69 1015 b 50 943 -21 1007 21 986 l 50 72 b -69 -1 21 28 -21 7 l 282 -1 l 282 526 l 394 526 b 485 431 463 508 465 490 b 558 138 508 365 558 239 b 493 0 558 78 542 26 z "},"L":{"ha":838,"x_min":0,"x_max":0,"o":"m 753 -1 l 838 274 b 496 218 811 228 643 218 b 282 222 403 218 318 222 l 282 943 b 401 1015 311 986 353 1008 l -69 1015 b 50 943 -21 1008 21 986 l 50 72 b -69 -1 21 28 -21 7 z "},"M":{"ha":1260,"x_min":0,"x_max":0,"o":"m 890 -49 b 729 224 847 -26 729 90 l 729 228 b 969 674 732 360 935 611 l 969 -1 l 1260 -1 b 1142 69 1213 7 1171 28 l 1142 944 b 1260 1015 1171 986 1213 1007 l 1089 1015 b 843 832 1068 1015 983 1004 b 596 439 754 722 665 572 b 347 832 525 572 436 722 b 103 1015 207 1004 124 1015 l -69 1015 b 49 944 -21 1007 19 986 l 49 69 b -69 0 19 28 -21 7 l 222 0 l 222 674 b 593 83 317 485 442 236 b 890 -49 701 -26 890 -49 z "},"N":{"ha":933,"x_min":0,"x_max":0,"o":"m 889 -64 b 814 39 889 -64 814 -10 l 814 943 b 933 1015 843 986 885 1008 l 521 1015 b 640 943 569 1008 611 986 l 640 333 b 57 1015 522 492 303 1015 l -69 1015 b 49 946 -21 1008 19 988 l 49 68 b -69 -1 19 26 -21 6 l 221 -1 l 221 657 b 889 -64 393 315 615 -25 z "},"O":{"ha":868,"x_min":0,"x_max":0,"o":"m 390 -1 b 868 467 724 -1 868 242 b 575 844 868 663 760 844 b 499 835 551 844 525 842 b 635 539 499 835 635 713 b 624 453 635 511 632 483 b 403 250 586 314 494 250 b 172 532 286 250 172 353 b 213 731 172 590 185 657 b 579 951 294 944 546 951 l 583 951 b 410 1015 546 1006 479 1015 b -69 490 94 1015 -69 750 b 390 -1 -69 242 81 -1 z "},"P":{"ha":835,"x_min":0,"x_max":0,"o":"m 396 -1 b 281 67 349 6 310 26 l 281 389 l 525 389 b 835 710 693 389 835 543 b 531 1015 835 878 697 1015 l -69 1015 b 47 944 -22 1008 18 988 l 47 -1 z m 378 483 l 281 483 l 281 914 l 378 914 b 592 699 496 914 592 817 b 378 483 592 581 496 483 z "},"Q":{"ha":876,"x_min":0,"x_max":0,"o":"m 847 -104 b 676 86 797 -62 733 8 b 876 508 799 178 876 332 b 404 1031 876 781 685 1031 l 390 1031 b 217 951 319 1028 254 1006 l 231 951 b 632 536 489 951 632 732 b 518 290 632 438 594 344 b 376 517 457 368 403 456 b 350 374 361 460 350 418 b 375 251 350 338 357 300 b 169 522 238 268 179 389 l 168 551 b 300 835 168 743 300 835 b 256 839 286 838 271 839 b -68 490 117 839 -49 711 l -69 453 b 410 -1 -69 231 96 -1 b 532 15 453 -1 493 4 b 847 -104 640 -86 707 -99 z "},"R":{"ha":964,"x_min":0,"x_max":0,"o":"m 863 -15 l 897 -12 l 964 -6 b 603 385 849 67 654 256 b 836 703 735 424 836 557 b 531 1017 836 875 699 1017 l -69 1017 b 49 943 -21 1008 19 988 l 49 1 l 396 1 b 282 69 350 8 310 28 l 282 389 l 360 389 b 863 -15 444 254 636 -15 z m 378 486 l 282 486 l 282 911 l 378 911 b 593 690 497 911 593 813 b 378 486 593 569 496 486 z "},"S":{"ha":663,"x_min":0,"x_max":0,"o":"m 263 3 b 663 318 488 4 663 124 l 663 328 b 375 644 660 496 515 579 b 218 774 289 686 218 717 b 225 806 218 783 221 794 b 369 872 244 856 304 872 b 599 808 469 872 586 831 l 556 975 b 313 1017 472 996 399 1017 l 297 1017 b -54 749 108 1010 -50 915 l -54 733 b 185 438 -54 593 19 518 b 390 260 260 400 390 358 l 390 256 b 346 178 390 221 372 194 b 258 156 319 161 289 156 b 108 186 207 156 153 172 b -69 251 22 213 -67 247 l -22 61 b 263 3 75 26 157 3 z "},"T":{"ha":885,"x_min":0,"x_max":0,"o":"m 643 -1 b 524 71 594 6 553 28 l 524 792 b 885 736 676 792 858 785 l 801 1011 l 14 1011 l -69 736 b 292 792 -43 785 140 792 l 292 71 b 172 -1 263 28 221 6 z "},"U":{"ha":850,"x_min":0,"x_max":0,"o":"m 399 -1 b 569 21 453 -1 510 6 b 728 42 633 38 685 42 b 850 22 808 42 850 22 l 850 1011 l 499 1011 b 617 939 547 1004 588 982 l 617 243 b 483 218 574 228 526 218 b 283 400 379 218 289 268 l 283 1011 l -69 1011 b 50 939 -21 1004 21 982 l 50 326 b 136 100 53 265 69 186 b 399 -1 186 33 283 -1 z "},"V":{"ha":940,"x_min":0,"x_max":0,"o":"m 515 -3 b 593 0 542 -3 568 -1 b 751 169 704 11 713 43 b 940 968 822 400 940 828 b 925 1013 940 994 935 1011 l 625 1013 b 731 960 667 1007 703 990 b 542 243 667 696 604 501 l 318 1015 l -69 1015 b 68 943 -47 1011 63 963 b 300 115 97 922 300 381 b 278 3 300 67 293 28 b 489 -3 364 3 433 0 z "},"W":{"ha":1549,"x_min":0,"x_max":0,"o":"m 586 -6 b 814 383 754 -6 735 43 b 918 39 819 240 918 156 b 915 3 918 26 918 15 b 1107 -1 979 3 1043 -1 b 1203 3 1139 -1 1171 0 b 1360 172 1314 13 1321 46 b 1549 969 1431 403 1549 828 b 1533 1015 1549 997 1544 1014 l 1235 1015 b 1319 872 1297 1006 1319 950 b 1146 219 1319 674 1171 328 b 696 960 961 856 1004 960 b 544 954 653 960 603 957 b 699 765 660 938 699 864 b 550 219 699 596 581 353 b 321 1015 474 481 339 1015 l -69 1015 b 69 943 -46 1011 64 963 b 301 114 97 922 301 379 b 279 3 301 67 294 28 b 586 -6 424 3 519 -6 z "},"X":{"ha":1011,"x_min":0,"x_max":0,"o":"m 1011 -1 b 850 71 958 6 904 28 l 594 515 b 944 1015 738 731 900 947 l 596 1015 b 665 942 639 1007 665 986 b 497 683 615 867 558 778 l 308 1011 l -69 1011 b 92 939 -17 1004 38 982 l 361 471 b 25 -1 250 301 133 131 l 392 -1 b 357 47 368 3 357 19 b 460 299 357 100 399 192 l 635 -1 z "},"Y":{"ha":969,"x_min":0,"x_max":0,"o":"m 658 72 l 658 429 l 969 1026 l 640 1026 b 744 974 681 1021 717 1004 l 557 575 l 321 1026 b -68 1026 190 1026 61 1026 b 425 429 117 1000 331 576 b 425 72 425 310 425 190 b 306 0 396 28 356 7 b 776 0 463 0 619 0 b 658 72 728 7 688 28 z "},"Z":{"ha":753,"x_min":0,"x_max":0,"o":"m 668 -1 l 753 272 b 282 140 726 228 458 140 l 753 1015 l -21 1015 l -69 740 b 301 839 -40 790 93 839 l 379 836 l -69 -1 z "},"[":{"ha":282,"x_min":0,"x_max":0,"o":"m 282 -176 b 163 -104 233 -169 192 -147 l 163 969 b 282 1043 192 1014 233 1035 l -69 1043 l -69 -176 z "},"\\":{"ha":597,"x_min":0,"x_max":0,"o":"m 597 -203 b 163 1018 483 136 276 679 l -69 1018 b 365 -203 43 679 251 136 z "},"]":{"ha":282,"x_min":0,"x_max":0,"o":"m 282 -176 l 282 1043 l -69 1043 b 49 969 -21 1035 19 1014 l 49 -104 b -69 -176 19 -147 -21 -169 z "},"^":{"ha":531,"x_min":0,"x_max":0,"o":"m 531 814 b 258 1043 442 889 335 982 l 203 1043 b -69 814 126 982 19 889 l 88 814 l 231 935 l 374 814 z "},"_":{"ha":888,"x_min":0,"x_max":0,"o":"m 888 -318 l 888 -190 l -69 -190 l -69 -318 z "},"`":{"ha":261,"x_min":0,"x_max":0,"o":"m 190 860 l 261 904 b -25 1063 213 922 26 1042 l -69 965 b 190 860 25 928 110 888 z "},"a":{"ha":1093,"x_min":0,"x_max":0,"o":"m 1093 -1 b 631 854 933 78 743 672 b 390 1025 542 997 450 1025 b 325 1014 354 1025 331 1015 b 332 971 331 1004 332 989 b -69 0 332 753 7 8 l 225 0 b 208 46 213 0 208 19 b 243 254 208 111 233 224 l 628 254 b 651 119 638 211 651 164 b 585 0 651 71 636 28 z m 592 389 l 293 389 b 449 783 346 531 410 690 b 592 389 497 654 549 521 z "},"b":{"ha":883,"x_min":0,"x_max":0,"o":"m 600 -1 b 883 289 756 -1 883 129 b 600 579 883 449 756 579 b 813 797 724 579 813 669 b 590 1014 813 917 721 1014 l -69 1014 b 49 942 -21 1006 19 985 l 49 -1 z m 488 228 l 236 228 l 239 896 l 457 896 b 594 772 558 875 594 824 b 538 654 594 729 571 685 b 408 579 500 619 449 607 b 351 489 381 561 358 535 b 471 513 397 506 436 513 b 639 365 583 513 639 438 b 488 228 639 296 588 228 z "},"c":{"ha":764,"x_min":0,"x_max":0,"o":"m 439 -4 b 718 49 572 -4 688 28 l 764 215 b 526 161 681 178 600 161 b 469 164 507 161 488 161 b 151 504 258 192 151 349 b 469 844 151 661 258 818 b 528 849 489 847 508 849 b 764 793 601 849 682 832 l 718 960 b 439 1014 688 982 572 1014 b 104 919 326 1014 201 992 b -69 504 -12 835 -69 669 b 96 96 -69 343 -15 182 b 439 -4 194 19 322 -4 z "},"d":{"ha":886,"x_min":0,"x_max":0,"o":"m 365 1011 b -81 640 111 1001 -72 914 b 219 836 -4 747 92 822 b 567 740 360 853 500 808 b 451 218 729 571 633 240 l 268 218 l 268 744 l 224 744 b 32 589 138 744 32 675 l 32 61 b -69 -1 7 24 -28 6 b 431 -1 85 -1 275 -1 b 844 681 813 32 946 397 b 365 1011 771 890 586 1021 z "},"e":{"ha":836,"x_min":0,"x_max":0,"o":"m 753 -1 l 836 272 b 488 218 810 226 636 218 b 282 221 397 218 317 221 l 282 526 l 542 526 b 629 453 589 514 624 492 l 629 749 b 547 675 622 710 592 686 l 282 675 l 282 894 b 533 901 325 894 429 901 b 797 849 654 901 774 892 l 753 1015 l -69 1015 b 49 944 -21 1008 19 988 l 49 68 b -69 -1 19 26 -21 6 z "},"f":{"ha":799,"x_min":0,"x_max":0,"o":"m 401 -1 b 282 71 353 6 311 28 l 282 526 l 543 526 b 631 453 590 514 624 492 l 631 749 b 549 675 624 710 592 686 l 282 675 l 282 894 b 535 901 325 894 429 901 b 799 849 656 901 775 892 l 753 1015 l -69 1015 b 50 943 -21 1008 21 986 l 50 71 b -69 -1 21 28 -21 6 z "},"g":{"ha":847,"x_min":0,"x_max":0,"o":"m 654 -3 l 847 -1 b 774 121 804 28 782 74 b 778 515 774 253 778 383 l 475 515 b 544 444 551 515 542 450 l 546 222 b 490 219 526 221 508 219 b 147 518 263 219 147 365 b 481 850 147 668 258 822 b 539 854 500 853 519 854 b 772 800 613 854 693 838 l 735 964 b 458 1017 706 985 590 1017 b -69 499 225 1017 -68 919 b 107 110 -69 319 19 171 b 654 -3 251 10 460 -3 z "},"h":{"ha":997,"x_min":0,"x_max":0,"o":"m 997 -1 b 879 71 949 6 908 28 l 879 943 b 997 1015 908 986 949 1008 l 526 1015 b 646 943 576 1008 617 986 l 646 675 l 283 675 l 283 943 b 401 1015 313 986 353 1008 l -69 1015 b 50 943 -21 1008 21 986 l 50 71 b -69 -1 21 28 -21 6 l 401 -1 b 283 71 353 6 313 28 l 283 526 l 646 526 l 646 71 b 526 -1 617 28 576 6 z "},"i":{"ha":401,"x_min":0,"x_max":0,"o":"m 401 -1 b 282 71 353 6 311 28 l 282 943 b 401 1015 311 986 353 1008 l -69 1015 b 50 943 -21 1008 21 986 l 50 71 b -69 -1 21 28 -21 6 z "},"j":{"ha":797,"x_min":0,"x_max":0,"o":"m 474 -1 b 632 1 560 -1 632 0 b 797 193 725 15 797 96 l 797 1015 l 444 1015 b 564 943 494 1008 535 986 l 564 307 l 565 296 b 475 218 565 272 556 221 l 322 218 b 233 361 236 228 233 297 l 233 524 l -69 524 b 0 451 7 524 -3 457 l 0 193 b 199 0 0 85 90 0 z "},"k":{"ha":968,"x_min":0,"x_max":0,"o":"m 968 -1 b 611 649 775 150 710 433 b 844 1015 611 661 740 968 l 439 1014 b 504 926 439 1014 497 982 b 507 881 506 913 507 897 b 400 674 507 799 479 696 l 282 674 l 282 1015 l -69 1015 b 50 943 -21 1007 21 986 l 50 72 b -69 -1 21 28 -21 7 l 282 -1 l 282 526 l 394 526 b 485 431 463 508 465 490 b 558 138 508 365 558 239 b 493 0 558 78 542 26 z "},"l":{"ha":838,"x_min":0,"x_max":0,"o":"m 753 -1 l 838 274 b 496 218 811 228 643 218 b 282 222 403 218 318 222 l 282 943 b 401 1015 311 986 353 1008 l -69 1015 b 50 943 -21 1008 21 986 l 50 72 b -69 -1 21 28 -21 7 z "},"m":{"ha":1260,"x_min":0,"x_max":0,"o":"m 890 -49 b 729 224 847 -26 729 90 l 729 228 b 969 674 732 360 935 611 l 969 -1 l 1260 -1 b 1142 69 1213 7 1171 28 l 1142 944 b 1260 1015 1171 986 1213 1007 l 1089 1015 b 843 832 1068 1015 983 1004 b 596 439 754 722 665 572 b 347 832 525 572 436 722 b 103 1015 207 1004 124 1015 l -69 1015 b 49 944 -21 1007 19 986 l 49 69 b -69 0 19 28 -21 7 l 222 0 l 222 674 b 593 83 317 485 442 236 b 890 -49 701 -26 890 -49 z "},"n":{"ha":933,"x_min":0,"x_max":0,"o":"m 889 -64 b 814 39 889 -64 814 -10 l 814 943 b 933 1015 843 986 885 1008 l 521 1015 b 640 943 569 1008 611 986 l 640 333 b 57 1015 522 492 303 1015 l -69 1015 b 49 946 -21 1008 19 988 l 49 68 b -69 -1 19 26 -21 6 l 221 -1 l 221 657 b 889 -64 393 315 615 -25 z "},"o":{"ha":868,"x_min":0,"x_max":0,"o":"m 390 -1 b 868 467 724 -1 868 242 b 575 844 868 663 760 844 b 499 835 551 844 525 842 b 635 539 499 835 635 713 b 624 453 635 511 632 483 b 403 250 586 314 494 250 b 172 532 286 250 172 353 b 213 731 172 590 185 657 b 579 951 294 944 546 951 l 583 951 b 410 1015 546 1006 479 1015 b -69 490 94 1015 -69 750 b 390 -1 -69 242 81 -1 z "},"p":{"ha":835,"x_min":0,"x_max":0,"o":"m 396 -1 b 281 67 349 6 310 26 l 281 389 l 525 389 b 835 710 693 389 835 543 b 531 1015 835 878 697 1015 l -69 1015 b 47 944 -22 1008 18 988 l 47 -1 z m 378 483 l 281 483 l 281 914 l 378 914 b 592 699 496 914 592 817 b 378 483 592 581 496 483 z "},"q":{"ha":876,"x_min":0,"x_max":0,"o":"m 847 -104 b 676 86 797 -62 733 8 b 876 508 799 178 876 332 b 404 1031 876 781 685 1031 l 390 1031 b 217 951 319 1028 254 1006 l 231 951 b 632 536 489 951 632 732 b 518 290 632 438 594 344 b 376 517 457 368 403 456 b 350 374 361 460 350 418 b 375 251 350 338 357 300 b 169 522 238 268 179 389 l 168 551 b 300 835 168 743 300 835 b 256 839 286 838 271 839 b -68 490 117 839 -49 711 l -69 453 b 410 -1 -69 231 96 -1 b 532 15 453 -1 493 4 b 847 -104 640 -86 707 -99 z "},"r":{"ha":964,"x_min":0,"x_max":0,"o":"m 863 -15 l 897 -12 l 964 -6 b 603 385 849 67 654 256 b 836 703 735 424 836 557 b 531 1017 836 875 699 1017 l -69 1017 b 49 943 -21 1008 19 988 l 49 1 l 396 1 b 282 69 350 8 310 28 l 282 389 l 360 389 b 863 -15 444 254 636 -15 z m 378 486 l 282 486 l 282 911 l 378 911 b 593 690 497 911 593 813 b 378 486 593 569 496 486 z "},"s":{"ha":663,"x_min":0,"x_max":0,"o":"m 263 3 b 663 318 488 4 663 124 l 663 328 b 375 644 660 496 515 579 b 218 774 289 686 218 717 b 225 806 218 783 221 794 b 369 872 244 856 304 872 b 599 808 469 872 586 831 l 556 975 b 313 1017 472 996 399 1017 l 297 1017 b -54 749 108 1010 -50 915 l -54 733 b 185 438 -54 593 19 518 b 390 260 260 400 390 358 l 390 256 b 346 178 390 221 372 194 b 258 156 319 161 289 156 b 108 186 207 156 153 172 b -69 251 22 213 -67 247 l -22 61 b 263 3 75 26 157 3 z "},"t":{"ha":885,"x_min":0,"x_max":0,"o":"m 643 -1 b 524 71 594 6 553 28 l 524 792 b 885 736 676 792 858 785 l 801 1011 l 14 1011 l -69 736 b 292 792 -43 785 140 792 l 292 71 b 172 -1 263 28 221 6 z "},"u":{"ha":850,"x_min":0,"x_max":0,"o":"m 399 -1 b 569 21 453 -1 510 6 b 728 42 633 38 685 42 b 850 22 808 42 850 22 l 850 1011 l 499 1011 b 617 939 547 1004 588 982 l 617 243 b 483 218 574 228 526 218 b 283 400 379 218 289 268 l 283 1011 l -69 1011 b 50 939 -21 1004 21 982 l 50 326 b 136 100 53 265 69 186 b 399 -1 186 33 283 -1 z "},"v":{"ha":940,"x_min":0,"x_max":0,"o":"m 515 -3 b 593 0 542 -3 568 -1 b 751 169 704 11 713 43 b 940 968 822 400 940 828 b 925 1013 940 994 935 1011 l 625 1013 b 731 960 667 1007 703 990 b 542 243 667 696 604 501 l 318 1015 l -69 1015 b 68 943 -47 1011 63 963 b 300 115 97 922 300 381 b 278 3 300 67 293 28 b 489 -3 364 3 433 0 z "},"w":{"ha":1549,"x_min":0,"x_max":0,"o":"m 586 -6 b 814 383 754 -6 735 43 b 918 39 819 240 918 156 b 915 3 918 26 918 15 b 1107 -1 979 3 1043 -1 b 1203 3 1139 -1 1171 0 b 1360 172 1314 13 1321 46 b 1549 969 1431 403 1549 828 b 1533 1015 1549 997 1544 1014 l 1235 1015 b 1319 872 1297 1006 1319 950 b 1146 219 1319 674 1171 328 b 696 960 961 856 1004 960 b 544 954 653 960 603 957 b 699 765 660 938 699 864 b 550 219 699 596 581 353 b 321 1015 474 481 339 1015 l -69 1015 b 69 943 -46 1011 64 963 b 301 114 97 922 301 379 b 279 3 301 67 294 28 b 586 -6 424 3 519 -6 z "},"x":{"ha":1011,"x_min":0,"x_max":0,"o":"m 1011 -1 b 850 71 958 6 904 28 l 594 515 b 944 1015 738 731 900 947 l 596 1015 b 665 942 639 1007 665 986 b 497 683 615 867 558 778 l 308 1011 l -69 1011 b 92 939 -17 1004 38 982 l 361 471 b 25 -1 250 301 133 131 l 392 -1 b 357 47 368 3 357 19 b 460 299 357 100 399 192 l 635 -1 z "},"y":{"ha":969,"x_min":0,"x_max":0,"o":"m 658 72 l 658 429 l 969 1026 l 640 1026 b 744 974 681 1021 717 1004 l 557 575 l 321 1026 b -68 1026 190 1026 61 1026 b 425 429 117 1000 331 576 b 425 72 425 310 425 190 b 306 0 396 28 356 7 b 776 0 463 0 619 0 b 658 72 728 7 688 28 z "},"z":{"ha":753,"x_min":0,"x_max":0,"o":"m 668 -1 l 753 272 b 282 140 726 228 458 140 l 753 1015 l -21 1015 l -69 740 b 301 839 -40 790 93 839 l 379 836 l -69 -1 z "},"{":{"ha":401,"x_min":0,"x_max":0,"o":"m 282 504 l 282 729 l 282 744 l 282 763 l 282 779 l 282 783 l 282 983 b 401 1047 311 1022 351 1042 l 49 1047 l 49 983 l 49 869 b 49 504 49 747 49 625 b -69 439 19 464 -21 446 b 49 374 -21 432 19 413 b 49 -171 49 193 49 11 l 401 -171 b 282 -106 351 -164 311 -144 l 282 93 l 282 99 l 282 115 l 282 132 l 282 147 l 282 374 b 163 439 253 413 211 432 b 282 504 211 446 253 464 z "},"|":{"ha":164,"x_min":0,"x_max":0,"o":"m -69 -193 l 164 -193 l 164 1042 l -69 1042 l -69 -193 z "},"}":{"ha":401,"x_min":0,"x_max":0,"o":"m 49 504 b 168 439 78 464 119 446 b 49 374 119 432 78 413 l 49 147 l 49 132 l 49 115 l 49 99 l 49 93 l 49 -106 b -69 -171 19 -144 -21 -164 l 282 -171 b 282 374 282 11 282 193 b 401 439 311 413 351 432 b 282 504 351 446 311 464 b 282 869 282 625 282 747 l 282 983 l 282 1047 l -69 1047 b 49 983 -21 1042 19 1022 l 49 783 l 49 779 l 49 763 l 49 744 l 49 729 z "},"~":{"ha":514,"x_min":0,"x_max":0,"o":"m -69 463 l -69 293 b 514 293 107 375 304 228 l 514 463 b -69 463 253 383 151 588 z "},"¡":{"ha":933,"x_min":0,"x_max":0,"o":""},"¢":{"ha":1582,"x_min":0,"x_max":0,"o":""},"£":{"ha":688,"x_min":0,"x_max":0,"o":""},"¤":{"ha":688,"x_min":0,"x_max":0,"o":""},"¥":{"ha":688,"x_min":0,"x_max":0,"o":""},"¦":{"ha":688,"x_min":0,"x_max":0,"o":""},"§":{"ha":688,"x_min":0,"x_max":0,"o":""},"¨":{"ha":694,"x_min":0,"x_max":0,"o":""},"©":{"ha":1136,"x_min":0,"x_max":0,"o":""},"ª":{"ha":900,"x_min":0,"x_max":0,"o":""},"«":{"ha":1311,"x_min":0,"x_max":0,"o":""},"¬":{"ha":688,"x_min":0,"x_max":0,"o":""},"®":{"ha":1136,"x_min":0,"x_max":0,"o":""},"¯":{"ha":694,"x_min":0,"x_max":0,"o":""},"°":{"ha":457,"x_min":0,"x_max":0,"o":""},"±":{"ha":547,"x_min":0,"x_max":0,"o":"m 311 0 l 311 300 l 547 300 l 547 443 l 311 443 l 311 717 l 168 717 l 168 443 l -69 443 l -69 300 l 168 300 l 168 0 z "},"²":{"ha":1408,"x_min":0,"x_max":0,"o":""},"³":{"ha":1408,"x_min":0,"x_max":0,"o":""},"´":{"ha":694,"x_min":0,"x_max":0,"o":""},"µ":{"ha":1639,"x_min":0,"x_max":0,"o":""},"¶":{"ha":694,"x_min":0,"x_max":0,"o":""},"·":{"ha":344,"x_min":0,"x_max":0,"o":""},"∙":{"ha":344,"x_min":0,"x_max":0,"o":""},"¸":{"ha":694,"x_min":0,"x_max":0,"o":""},"¹":{"ha":1408,"x_min":0,"x_max":0,"o":""},"º":{"ha":2114,"x_min":0,"x_max":0,"o":""},"»":{"ha":1311,"x_min":0,"x_max":0,"o":""},"¼":{"ha":2372,"x_min":0,"x_max":0,"o":""},"½":{"ha":3292,"x_min":0,"x_max":0,"o":""},"¾":{"ha":2372,"x_min":0,"x_max":0,"o":""},"¿":{"ha":1039,"x_min":0,"x_max":0,"o":""},"À":{"ha":2139,"x_min":0,"x_max":0,"o":""},"Á":{"ha":2139,"x_min":0,"x_max":0,"o":""},"Â":{"ha":2139,"x_min":0,"x_max":0,"o":""},"Ã":{"ha":2139,"x_min":0,"x_max":0,"o":""},"Ä":{"ha":2139,"x_min":0,"x_max":0,"o":""},"Å":{"ha":2139,"x_min":0,"x_max":0,"o":""},"Æ":{"ha":2903,"x_min":0,"x_max":0,"o":""},"Ç":{"ha":1943,"x_min":0,"x_max":0,"o":""},"È":{"ha":1599,"x_min":0,"x_max":0,"o":""},"É":{"ha":1599,"x_min":0,"x_max":0,"o":""},"Ê":{"ha":1599,"x_min":0,"x_max":0,"o":""},"Ë":{"ha":1599,"x_min":0,"x_max":0,"o":""},"Ì":{"ha":913,"x_min":0,"x_max":0,"o":""},"Í":{"ha":913,"x_min":0,"x_max":0,"o":""},"Î":{"ha":913,"x_min":0,"x_max":0,"o":""},"Ï":{"ha":913,"x_min":0,"x_max":0,"o":""},"Ð":{"ha":2108,"x_min":0,"x_max":0,"o":""},"Ñ":{"ha":2158,"x_min":0,"x_max":0,"o":""},"Ò":{"ha":2242,"x_min":0,"x_max":0,"o":""},"Ó":{"ha":2242,"x_min":0,"x_max":0,"o":""},"Ô":{"ha":2242,"x_min":0,"x_max":0,"o":""},"Õ":{"ha":2242,"x_min":0,"x_max":0,"o":""},"Ö":{"ha":2242,"x_min":0,"x_max":0,"o":""},"×":{"ha":689,"x_min":0,"x_max":0,"o":""},"Ø":{"ha":2242,"x_min":0,"x_max":0,"o":""},"Ù":{"ha":2085,"x_min":0,"x_max":0,"o":""},"Ú":{"ha":2085,"x_min":0,"x_max":0,"o":""},"Û":{"ha":2085,"x_min":0,"x_max":0,"o":""},"Ü":{"ha":2085,"x_min":0,"x_max":0,"o":""},"Ý":{"ha":1713,"x_min":0,"x_max":0,"o":""},"Þ":{"ha":1556,"x_min":0,"x_max":0,"o":""},"ß":{"ha":1738,"x_min":0,"x_max":0,"o":""},"à":{"ha":1281,"x_min":0,"x_max":0,"o":""},"á":{"ha":1281,"x_min":0,"x_max":0,"o":""},"â":{"ha":1281,"x_min":0,"x_max":0,"o":""},"ã":{"ha":1281,"x_min":0,"x_max":0,"o":""},"ä":{"ha":1281,"x_min":0,"x_max":0,"o":""},"å":{"ha":1281,"x_min":0,"x_max":0,"o":""},"æ":{"ha":2015,"x_min":0,"x_max":0,"o":""},"ç":{"ha":1257,"x_min":0,"x_max":0,"o":""},"è":{"ha":1263,"x_min":0,"x_max":0,"o":""},"é":{"ha":1263,"x_min":0,"x_max":0,"o":""},"ê":{"ha":1263,"x_min":0,"x_max":0,"o":""},"ë":{"ha":1263,"x_min":0,"x_max":0,"o":""},"ì":{"ha":714,"x_min":0,"x_max":0,"o":""},"í":{"ha":714,"x_min":0,"x_max":0,"o":""},"î":{"ha":714,"x_min":0,"x_max":0,"o":""},"ï":{"ha":714,"x_min":0,"x_max":0,"o":""},"ð":{"ha":1582,"x_min":0,"x_max":0,"o":""},"ñ":{"ha":1539,"x_min":0,"x_max":0,"o":""},"ò":{"ha":1403,"x_min":0,"x_max":0,"o":""},"ó":{"ha":1403,"x_min":0,"x_max":0,"o":""},"ô":{"ha":1403,"x_min":0,"x_max":0,"o":""},"õ":{"ha":1403,"x_min":0,"x_max":0,"o":""},"ö":{"ha":1403,"x_min":0,"x_max":0,"o":""},"÷":{"ha":688,"x_min":0,"x_max":0,"o":"m 515 890 l 515 1115 l 282 1115 l 282 890 z m 515 563 l 515 788 l 282 788 l 282 563 z "},"ø":{"ha":1403,"x_min":0,"x_max":0,"o":""},"ù":{"ha":1471,"x_min":0,"x_max":0,"o":""},"ú":{"ha":1471,"x_min":0,"x_max":0,"o":""},"û":{"ha":1471,"x_min":0,"x_max":0,"o":""},"ü":{"ha":1471,"x_min":0,"x_max":0,"o":""},"ý":{"ha":1206,"x_min":0,"x_max":0,"o":""},"þ":{"ha":1403,"x_min":0,"x_max":0,"o":""},"ÿ":{"ha":1206,"x_min":0,"x_max":0,"o":""},"ı":{"ha":349,"x_min":0,"x_max":0,"o":""},"̀":{"ha":0,"x_min":0,"x_max":0,"o":""},"́":{"ha":0,"x_min":0,"x_max":0,"o":""},"̂":{"ha":0,"x_min":0,"x_max":0,"o":""},"̃":{"ha":0,"x_min":0,"x_max":0,"o":""},"̄":{"ha":0,"x_min":0,"x_max":0,"o":""},"̇":{"ha":0,"x_min":0,"x_max":0,"o":""},"̈":{"ha":0,"x_min":0,"x_max":0,"o":""},"̊":{"ha":0,"x_min":0,"x_max":0,"o":""},"̌":{"ha":0,"x_min":0,"x_max":0,"o":""},"̧":{"ha":0,"x_min":0,"x_max":0,"o":""},"–":{"ha":751,"x_min":0,"x_max":0,"o":""},"—":{"ha":1389,"x_min":0,"x_max":0,"o":""},"‘":{"ha":378,"x_min":0,"x_max":0,"o":""},"’":{"ha":378,"x_min":0,"x_max":0,"o":""},"‚":{"ha":378,"x_min":0,"x_max":0,"o":""},"“":{"ha":617,"x_min":0,"x_max":0,"o":""},"”":{"ha":618,"x_min":0,"x_max":0,"o":""},"„":{"ha":618,"x_min":0,"x_max":0,"o":""},"†":{"ha":688,"x_min":0,"x_max":0,"o":""},"‡":{"ha":688,"x_min":0,"x_max":0,"o":""},"•":{"ha":694,"x_min":0,"x_max":0,"o":""},"…":{"ha":2844,"x_min":0,"x_max":0,"o":"m 164 0 l 164 225 l -69 225 l -69 0 z m 1113 0 l 1113 225 l 879 225 l 879 0 z m 2061 0 l 2061 225 l 1828 225 l 1828 0 z "},"‹":{"ha":428,"x_min":0,"x_max":0,"o":""},"›":{"ha":428,"x_min":0,"x_max":0,"o":""},"⁄":{"ha":232,"x_min":0,"x_max":0,"o":""},"∕":{"ha":232,"x_min":0,"x_max":0,"o":""},"₣":{"ha":689,"x_min":0,"x_max":0,"o":""},"₤":{"ha":688,"x_min":0,"x_max":0,"o":""},"₧":{"ha":1375,"x_min":0,"x_max":0,"o":""},"€":{"ha":688,"x_min":0,"x_max":0,"o":""},"№":{"ha":3154,"x_min":0,"x_max":0,"o":""},"™":{"ha":2079,"x_min":0,"x_max":0,"o":""},"∂":{"ha":689,"x_min":0,"x_max":0,"o":""},"∆":{"ha":733,"x_min":0,"x_max":0,"o":""},"∏":{"ha":1026,"x_min":0,"x_max":0,"o":""},"∑":{"ha":818,"x_min":0,"x_max":0,"o":""},"−":{"ha":688,"x_min":0,"x_max":0,"o":""},"√":{"ha":688,"x_min":0,"x_max":0,"o":""},"∞":{"ha":688,"x_min":0,"x_max":0,"o":""},"∫":{"ha":451,"x_min":0,"x_max":0,"o":""},"≈":{"ha":688,"x_min":0,"x_max":0,"o":""},"≤":{"ha":868,"x_min":0,"x_max":0,"o":"m 868 -37 l 868 207 b 372 429 701 282 526 358 l 868 651 l 868 896 b -69 472 564 757 179 592 l -69 386 b 868 -37 179 267 564 100 z "},"≥":{"ha":771,"x_min":0,"x_max":0,"o":"m -69 -37 b 771 386 204 100 547 267 l 771 472 b -69 896 547 592 204 757 l -69 651 l 376 429 b -69 207 238 358 82 282 z "},"":{"ha":1500,"x_min":0,"x_max":0,"o":"m 1415 0 l 1500 275 b 1158 219 1474 229 1306 219 b 944 224 1065 219 981 224 l 944 528 l 1206 528 b 1293 454 1253 515 1286 493 l 1293 750 b 1211 676 1286 711 1254 689 l 944 676 l 944 897 b 1190 904 986 897 1088 904 b 1461 850 1313 904 1438 894 l 1415 1017 l -69 1017 b 49 947 -21 1010 19 989 l 49 71 b -69 0 19 28 -21 7 z m 621 6 l 703 275 b 450 219 676 229 558 219 b 281 224 382 219 317 224 l 281 528 l 542 528 b 629 454 589 515 622 493 l 629 750 b 547 676 622 711 592 689 l 281 676 l 281 897 b 468 904 322 897 396 904 b 664 850 556 904 640 894 l 619 1013 b 713 947 657 1001 689 982 l 713 71 b 621 6 689 36 657 15 z "},"":{"ha":1107,"x_min":0,"x_max":0,"o":"m 401 0 b 282 74 353 8 311 29 l 282 528 l 543 528 b 631 454 590 515 624 493 l 631 750 b 549 676 624 711 592 689 l 282 676 l 282 897 b 490 904 324 897 408 904 b 713 850 590 904 690 894 l 669 1010 b 756 944 704 999 733 978 l 756 74 b 636 1 726 29 685 8 l 1107 1 b 989 74 1058 8 1018 29 l 989 944 b 1107 1017 1018 989 1058 1010 l -69 1017 b 50 944 -21 1010 21 989 l 50 74 b -69 0 21 29 -21 8 z "},"":{"ha":1521,"x_min":0,"x_max":0,"o":"m 1436 0 l 1521 275 b 1179 219 1494 229 1326 219 b 965 224 1086 219 1001 224 l 965 944 b 1085 1017 994 988 1036 1008 l -69 1017 b 50 944 -19 1010 21 989 l 50 74 b -69 0 21 29 -19 8 l 401 0 b 283 74 353 8 313 29 l 283 528 l 544 528 b 631 454 590 515 625 493 l 631 750 b 549 676 625 711 593 689 l 283 676 l 283 897 b 482 904 325 897 404 904 b 693 850 578 904 671 894 l 651 1007 b 733 944 683 996 711 976 l 733 72 b 614 0 704 29 663 8 z "},"":{"ha":1754,"x_min":0,"x_max":0,"o":"m 1069 -232 b 1161 -211 1142 -232 1161 -211 b 972 28 1017 -181 972 -82 b 1015 247 972 101 992 181 l 1399 247 b 1422 99 1413 188 1422 133 l 1421 82 b 1356 -6 1413 26 1356 -6 l 1863 -7 b 1774 74 1863 -7 1856 -4 b 1400 846 1692 150 1540 619 b 1161 1017 1313 989 1219 1017 b 1096 1006 1125 1017 1101 1007 b 1118 938 1111 992 1118 968 b 810 131 1118 749 858 286 b 646 400 750 207 675 308 b 833 697 756 453 833 571 b 529 1006 833 867 696 1006 l -69 1006 b 49 935 -21 999 19 978 l 49 -7 l 394 -7 b 281 61 349 0 308 21 l 281 351 b 344 379 292 369 317 379 b 411 354 368 379 393 371 b 925 -212 483 200 744 -171 b 1069 -232 988 -226 1035 -232 z m 376 467 l 281 467 l 281 903 l 376 903 b 592 685 494 903 592 806 b 376 467 592 565 494 467 z m 1361 382 l 1064 382 b 1219 776 1117 524 1181 683 b 1361 382 1254 683 1326 492 z "},"":{"ha":1528,"x_min":0,"x_max":0,"o":"m 1203 0 b 1483 53 1336 0 1453 32 l 1528 219 b 1264 153 1428 172 1339 153 b 929 508 1040 153 929 331 b 1264 864 929 686 1040 864 b 1528 797 1339 864 1428 844 l 1483 964 b 1204 1018 1453 986 1338 1018 b 860 917 1088 1018 958 993 b 761 796 819 886 788 844 b 610 860 721 836 669 860 b 500 836 576 860 539 851 b 635 542 500 836 635 714 b 624 454 635 514 632 485 b 403 251 586 315 494 251 b 172 533 286 251 172 354 b 213 732 172 592 185 658 b 579 953 294 946 546 953 l 583 953 b 410 1017 546 1007 481 1017 b -69 492 94 1017 -69 751 b 390 0 -69 243 81 0 b 778 193 575 0 703 81 b 869 93 803 154 833 119 b 1203 0 967 22 1090 0 z "},"":{"ha":1744,"x_min":0,"x_max":0,"o":"m 1071 -115 l 1119 -112 b 976 65 1018 -58 976 -12 b 1022 260 976 114 993 175 l 1407 260 b 1429 126 1417 218 1429 171 b 1364 6 1429 78 1414 33 l 1872 4 b 1408 861 1711 85 1521 679 b 1168 1031 1321 1003 1228 1031 b 1103 1019 1132 1031 1108 1021 b 1111 975 1108 1010 1111 994 b 813 146 1111 815 936 375 l 813 963 b 929 1031 842 1003 882 1024 l 524 1031 b 640 961 571 1024 611 1003 l 640 347 b 56 1031 522 504 303 1031 l -69 1031 b 47 961 -22 1024 18 1003 l 47 83 b -69 14 18 42 -22 21 l 221 14 l 221 672 b 1071 -115 375 367 671 -115 z m 1369 396 l 1071 396 b 1226 790 1124 538 1189 697 b 1369 396 1275 660 1328 528 z "},"":{"ha":1297,"x_min":0,"x_max":0,"o":"m 1118 13 b 999 85 1069 19 1028 42 l 999 806 b 1360 750 1151 806 1333 799 l 1276 1025 l 489 1025 l 483 1007 b 310 1031 428 1021 372 1031 l 297 1031 b -54 763 108 1025 -49 929 l -54 747 b 185 451 -54 607 19 533 b 392 274 261 414 392 372 b 346 192 392 236 375 210 b 260 169 319 175 290 169 b 110 200 208 169 154 186 b -69 265 22 226 -65 261 l -21 75 b 263 17 76 40 158 17 b 664 335 490 18 664 139 l 664 342 b 376 658 660 510 517 593 b 219 788 290 700 219 731 b 226 819 219 797 222 808 b 369 886 246 868 304 886 b 444 879 393 886 419 883 l 406 750 b 767 806 432 799 615 806 l 767 85 b 647 13 738 42 696 19 z "}}}
